# xmcd CD database file
#
# Track frame offsets:
#	150
#	20621
#	42579
#	63052
#	82299
#	95913
#	120124
#	140291
#	158921
#	178422
#	206424
#	226642
#	253520
#
# Disc length: 3692 seconds
#
# Revision: 10
# Processed by: cddbd v1.5.1PL0 Copyright (c) Steve Scherf et al.
# Submitted via: CDex 1.51
#
DISCID=ac0e6a0d
DTITLE=John Mayall and Friends - Along For The Ride
DYEAR=2001
DGENRE=Blues
TTITLE0=A World Of Hurt Feat.Jeff Healey
TTITLE1=Along For The Ride Feat.Billy Preston
TTITLE2=Put It Right Back Feat.Billy F.Gibbons
TTITLE3=That's Why I Love You So Feat.Jonny Lang
TTITLE4=Yo Yo Man Feat.P.GreenS.MillerJ.McVieM.Fleetwood
TTITLE5=If I Don't Get Home Feat.Gary Moore
TTITLE6=Testify Feat.Shannon Curfman
TTITLE7=Early In The Morning Feat.Chris Rea D.Heackstall SmithS.MillerA.Fairweather LowJ.McVieM.Fleetwood
TTITLE8=Something About My Baby Feat.Andy Fairweather LowB.Whittington
TTITLE9=So Many Roads Feat.Otis Rush
TTITLE10=World War Blues Feat.Billy Preston
TTITLE11=California Feat.Red Holloway
TTITLE12=She Don't Play By The Rules Feat.Mick Taylor
EXTD=YEAR: 2001
EXTT0=
EXTT1=
EXTT2=
EXTT3=
EXTT4=
EXTT5=
EXTT6=
EXTT7=
EXTT8=
EXTT9=
EXTT10=
EXTT11=
EXTT12=
PLAYORDER=
